<svg width="256" height="256" viewBox="0 0 256 256" fill="none" xmlns="http://www.w3.org/2000/svg">
<mask id="mask0" mask-type="alpha" maskUnits="userSpaceOnUse" x="0" y="0" width="256" height="256">
<circle cx="128" cy="128" r="113" fill="url(#paint0_angular)" stroke="#65E1F2" stroke-width="30"/>
</mask>
<g mask="url(#mask0)">
<mask id="path-2-inside-1" fill="white">
<path fill-rule="evenodd" clip-rule="evenodd" d="M128 256C198.692 256 256 198.692 256 128C256 57.3076 198.692 0 128 0C64.2695 0 11.4174 46.5758 1.62549 107.546L18.0799 124H126.965C129.174 124 130.965 125.791 130.965 128C130.965 130.209 129.174 132 126.965 132H18.0799L1.62549 148.454C11.4174 209.424 64.2695 256 128 256Z"/>
</mask>
<g filter="url(#filter0_i)">
<path fill-rule="evenodd" clip-rule="evenodd" d="M128 256C198.692 256 256 198.692 256 128C256 57.3076 198.692 0 128 0C64.2695 0 11.4174 46.5758 1.62549 107.546L18.0799 124H126.965C129.174 124 130.965 125.791 130.965 128C130.965 130.209 129.174 132 126.965 132H18.0799L1.62549 148.454C11.4174 209.424 64.2695 256 128 256Z" fill="url(#paint1_angular)"/>
</g>
<path d="M1.62549 107.546L-6.27329 106.277L-6.92139 110.312L-4.03137 113.202L1.62549 107.546ZM18.0799 124L12.4231 129.657L14.7662 132H18.0799V124ZM18.0799 132V124H14.7662L12.4231 126.343L18.0799 132ZM1.62549 148.454L-4.03137 142.798L-6.92139 145.688L-6.27329 149.723L1.62549 148.454ZM248 128C248 194.274 194.274 248 128 248V264C203.111 264 264 203.111 264 128H248ZM128 8C194.274 8 248 61.7258 248 128H264C264 52.8893 203.111 -8 128 -8V8ZM9.52427 108.814C18.7031 51.6615 68.2603 8 128 8V-8C60.2787 -8 4.13163 41.4901 -6.27329 106.277L9.52427 108.814ZM-4.03137 113.202L12.4231 129.657L23.7368 118.343L7.28234 101.889L-4.03137 113.202ZM18.0799 132H126.965V116H18.0799V132ZM126.965 132C124.756 132 122.965 130.209 122.965 128H138.965C138.965 121.373 133.593 116 126.965 116V132ZM122.965 128C122.965 125.791 124.756 124 126.965 124V140C133.593 140 138.965 134.627 138.965 128H122.965ZM126.965 124H18.0799V140H126.965V124ZM12.4231 126.343L-4.03137 142.798L7.28234 154.111L23.7368 137.657L12.4231 126.343ZM128 248C68.2603 248 18.7031 204.338 9.52427 147.186L-6.27329 149.723C4.13163 214.51 60.2787 264 128 264V248Z" fill="#65E1F2" mask="url(#path-2-inside-1)"/>
</g>
<defs>
<filter id="filter0_i" x="1.62549" y="-4" width="254.375" height="260" filterUnits="userSpaceOnUse" color-interpolation-filters="sRGB">
<feFlood flood-opacity="0" result="BackgroundImageFix"/>
<feBlend mode="normal" in="SourceGraphic" in2="BackgroundImageFix" result="shape"/>
<feColorMatrix in="SourceAlpha" type="matrix" values="0 0 0 0 0 0 0 0 0 0 0 0 0 0 0 0 0 0 127 0" result="hardAlpha"/>
<feOffset dy="-4"/>
<feGaussianBlur stdDeviation="4"/>
<feComposite in2="hardAlpha" operator="arithmetic" k2="-1" k3="1"/>
<feColorMatrix type="matrix" values="0 0 0 0 0 0 0 0 0 0 0 0 0 0 0 0 0 0 0.12 0"/>
<feBlend mode="normal" in2="shape" result="effect1_innerShadow"/>
</filter>
<radialGradient id="paint0_angular" cx="0" cy="0" r="1" gradientUnits="userSpaceOnUse" gradientTransform="translate(128 128) rotate(-90) scale(94 76.1988)">
<stop stop-color="#3DC3D6"/>
<stop offset="1" stop-color="#EE3DDC"/>
</radialGradient>
<radialGradient id="paint1_angular" cx="0" cy="0" r="1" gradientUnits="userSpaceOnUse" gradientTransform="translate(125.241 128) rotate(-90) scale(94 78.3995)">
<stop stop-color="#3FD4E9"/>
<stop offset="1" stop-color="#FE29E9"/>
</radialGradient>
</defs>
</svg>
